<svg xmlns="http://www.w3.org/2000/svg" xmlns:xlink="http://www.w3.org/1999/xlink" viewBox="0,0,256,256" width="48px" height="48px"><g fill="none" fill-rule="nonzero" stroke="none" stroke-width="1" stroke-linecap="butt" stroke-linejoin="miter" stroke-miterlimit="10" stroke-dasharray="" stroke-dashoffset="0" font-family="none" font-weight="none" font-size="none" text-anchor="none" style="mix-blend-mode: normal"><g transform="scale(5.33333,5.33333)"><path d="M39,8h-30c-1.657,0 -3,1.343 -3,3v23c0,1.656 1.343,3 3,3h3v7l8.556,-7h18.444c1.656,0 3,-1.344 3,-3v-23c0,-1.657 -1.344,-3 -3,-3z" fill="#bce5e0"></path><path d="M42,32.002c0,2.481 -2.016,4.499 -4.499,4.499h-16.504l-4.498,-7.501h25.501z" fill="#b0bec5"></path><path d="M16,29l-4,-7v-3h8v3z" fill="#ffffff"></path><path d="M20,22l-4,-1l-3.997,1v-17h7.997z" fill="#306b88"></path><path d="M14.286,26l1.714,3l1.714,-3z" fill="#37474f"></path><path d="M16,5v16l4,1v-17z" fill="#448db1"></path><path d="M16,29l5,8h18c1.656,0 3,-1.344 3,-3v-5z" fill="#97a3a8"></path></g></g></svg>