<svg height="302.113" viewBox="0 0 270.38 302.113" width="270.38" xmlns="http://www.w3.org/2000/svg"><ellipse cx="135.19" cy="134.749" fill="#ffd215" rx="135.184" ry="134.697" transform="matrix(.97643181 -.21582615 .21582615 .97643181 -25.896 32.353)"/><path d="m203.07 122.373c-8.341-37.736-46.126-61.359-83.867-52.057-35.561 8.765-58.223 44.386-51.101 80.311 3.489 17.6 13.345 32.233 26.659 42.06 14.074 10.387 23.627 25.784 27.403 42.864l1.11 5.02c1.607 7.269 8.802 11.86 16.072 10.253l41.001-9.063c7.269-1.607 11.86-8.802 10.253-16.072l-1.17-5.292c-3.824-17.302-1.019-35.284 7.271-50.944 7.38-13.941 10.041-30.47 6.369-47.08z" fill="#fff"/><path d="m136.432 256.145c-8.477 0-16.138-5.882-18.042-14.494l-1.11-5.02c-3.595-16.265-12.648-30.442-25.49-39.92-14.845-10.956-25-26.977-28.595-45.11-3.696-18.643-.063-37.82 10.231-53.997 10.293-16.178 26.125-27.593 44.579-32.141 19.532-4.814 39.687-1.629 56.751 8.97 17.069 10.601 28.858 27.246 33.194 46.862 3.78 17.101 1.354 35.035-6.832 50.499-7.876 14.878-10.294 31.756-6.808 47.526l1.17 5.292c1.065 4.82.19 9.766-2.465 13.928s-6.771 7.04-11.591 8.105l-41.001 9.063c-1.338.296-2.675.438-3.991.438zm-.549-182.867c-5.151 0-10.341.626-15.484 1.894-33.232 8.191-54.05 40.908-47.393 74.484 3.109 15.683 11.889 29.537 24.724 39.009 14.787 10.914 25.198 27.182 29.315 45.808l1.11 5.02c1.009 4.565 5.544 7.459 10.111 6.45l41.001-9.063c2.212-.489 4.101-1.81 5.319-3.719 1.218-1.91 1.62-4.179 1.131-6.391l-1.17-5.292c-3.998-18.084-1.25-37.391 7.735-54.363 7.077-13.369 9.174-28.875 5.906-43.662-3.75-16.965-13.945-31.357-28.706-40.526-10.265-6.376-21.826-9.649-33.598-9.649z" fill="#fff"/><g fill="#b7b7b7"><path d="m141.635 192.392h24.649v54.545h-24.649z" transform="matrix(.97643181 -.21582615 .21582615 .97643181 -43.781 38.406)"/><path d="m147.807 253.954c-2.294 0-4.362-1.589-4.877-3.922l-11.772-53.259c-.596-2.696 1.107-5.365 3.803-5.961l24.068-5.32c1.294-.286 2.65-.046 3.768.667s1.907 1.841 2.193 3.136l11.772 53.259c.596 2.696-1.107 5.365-3.803 5.961l-24.068 5.32c-.363.08-.727.119-1.084.119zm-5.806-54.457 9.614 43.495 14.304-3.162-9.614-43.495z"/><path d="m136.043 200.695c-1.793 0-3.527-.967-4.424-2.663l-33.524-63.376c-.955-1.805-.716-4.01.604-5.569s3.455-2.158 5.393-1.514c.544.171 14.235 4.301 23.862-9.735 1.489-2.171 4.405-2.816 6.67-1.474 14.647 8.671 25.321-.845 25.768-1.254 1.497-1.37 3.687-1.713 5.522-.847 1.835.865 2.98 2.74 2.875 4.767l-3.689 71.601c-.142 2.758-2.49 4.88-5.251 4.736-2.758-.142-4.878-2.493-4.736-5.251l3.21-62.292c-6.485 2.522-15.25 3.494-24.842-.803-6.888 7.94-15.244 10.752-22.189 11.199l29.166 55.136c1.291 2.441.359 5.466-2.082 6.758-.745.394-1.545.581-2.333.581z"/><path d="m148.066 198.023c-2.294 0-4.362-1.589-4.877-3.922l-15.993-72.355c-.596-2.696 1.107-5.365 3.803-5.961 2.697-.596 5.365 1.107 5.961 3.803l15.993 72.355c.596 2.696-1.107 5.365-3.803 5.961-.363.08-.727.119-1.084.119z"/></g><path d="m177.089 294.201-12.69 2.805c-2.147.475-4.323-.675-5.141-2.716l-3.183-7.944 24.068-5.32.462 8.546c.119 2.196-1.37 4.155-3.517 4.63z" fill="#656c72"/><path d="m163.406 302.116c-3.81 0-7.316-2.293-8.788-5.966l-5.375-13.415 35.576-7.864.78 14.43c.252 4.66-2.873 8.774-7.43 9.782s-12.69 2.805-12.69 2.805c-.694.153-1.389.228-2.073.228zm13.684-7.915h.01zm-14.181-4.245.832 2.075 11.85-2.619-.121-2.233-12.561 2.776z" fill="#656c72"/><path d="m137.121 245.831h53.712v29.32c0 4.96-4.027 8.987-8.987 8.987h-35.739c-4.96 0-8.987-4.027-8.987-8.987v-29.32z" fill="#8f969e" transform="matrix(.97643181 -.21582615 .21582615 .97643181 -53.326 41.636)"/><path d="m148.72 292.755c-6.416 0-12.214-4.451-13.655-10.969l-6.328-28.629c-.596-2.696 1.107-5.365 3.803-5.961l52.446-11.593c1.295-.286 2.65-.046 3.768.667s1.907 1.841 2.193 3.136l6.328 28.629c1.665 7.53-3.107 15.011-10.638 16.676l-34.896 7.713c-1.012.224-2.024.331-3.021.331zm-9.139-36.874 5.249 23.747c.475 2.147 2.607 3.506 4.753 3.032l34.896-7.713c1.04-.23 1.928-.851 2.501-1.749s.761-1.965.532-3.005l-5.249-23.747-42.682 9.434z" fill="#8f969e"/><path d="m135.663 266.343c-2.294 0-4.362-1.589-4.877-3.922-.596-2.696 1.107-5.365 3.803-5.961l52.446-11.593c2.697-.596 5.365 1.107 5.961 3.803s-1.107 5.365-3.803 5.961l-52.446 11.593c-.363.08-.727.119-1.084.119z" fill="#656c72"/><path d="m139.835 285.219c-2.294 0-4.362-1.589-4.877-3.922-.596-2.696 1.107-5.365 3.803-5.961l52.446-11.593c2.696-.596 5.365 1.107 5.961 3.803s-1.107 5.365-3.803 5.961l-52.446 11.593c-.363.08-.727.119-1.084.119z" fill="#656c72"/></svg>