<svg xmlns="http://www.w3.org/2000/svg" viewBox="0 0 3000 3000" width="3000" height="3000"><g transform="translate(243.6 944.4) rotate(0.0 1095.6 730.1999999999998) scale(1.3837701294600566 1.3826926718424537)"><svg width="1583.5" height="1056.2" viewBox="0 0 1583.5 1056.2"><path d="M410.1 668.5c70 62 222 345 147 345.1-56 0-147-107.1-147-345.1zm881 164c85-41 246.9-132.9 285-88 50 59-285 88-285 88z" fill="#5b2448"/><path d="M795.1 442.5c-85-56-262-50-385 226 48 42 222 326 147 345.1l694.1-.6-63.1-119.5s338-203 388-149c0 0-369-474-580-307z" fill="#f94f46"/><circle cx="896.9" cy="592.5" fill="#fcb6b1" r="5.6"/><circle cx="893.2" cy="668" fill="#fcb6b1" r="5.6"/><path d="M782.6 520.8c2.4 32.1 9.9 57.8 20.6 70.6 5.1 6.1 11.1 9.3 17.3 9.3 1.1 0 2.2-.1 3.3-.4 18.2-3.3 38-32 59-85.5-5.2 44.1-16.5 147.2-12.2 176.6 4.4 29.5 39.7 34.5 40.1 34.5h.3c1.2 0 2.3-.9 2.5-2.1.1-1.4-.8-2.6-2.2-2.8-.3 0-31.9-4.5-35.8-30.3-4.1-27.8 6.5-126.4 11.9-172 2.9 14.3 8.2 29.4 15.3 42.9 12.4 23.4 27.8 37.1 42 37.7h1c14 0 25.7-12.1 34.9-36.1 10.7-27.8 17.6-71.3 20.5-129.3v-.2c-1.7 1.2-3.3 2.5-5 3.8h-.2c-3.1 55.5-9.7 97.2-20 124-5.8 15.4-16 33.5-31 32.9-26.9-1.1-55.2-58.8-54.8-98.1.1-.6.1-.9.1-1 0-.3 0-.6-.1-.9l.4-15.1-5.3 14.7c-28.6 79.7-49.7 99.2-62.3 101.4-5.7 1-11-1.5-15.9-7.3-20.6-24.7-26.7-102.3-12.1-145.7-1.4-.9-2.9-1.8-4.3-2.7-7.3 20.6-10.2 50.7-8 81.1zm308.2 210.1c0-.1 0-.1 0 0-.7-1.3-2.2-1.8-3.4-1.2-1.2.7-1.7 2.2-1.1 3.4 38.8 79.5 102.9 144.1 103.5 144.7.5.4 1.1.7 1.8.7s1.3-.3 1.7-.8c1-.9 1-2.5 0-3.5-.6-.6-64.1-64.6-102.5-143.3zM692 750.4c.2-1.3-.7-2.6-2-2.8-1.3-.3-2.6.6-2.9 2-24.2 114.6-75.7 216-115.8 253.3-3 5.4-7.6 9.1-14.2 10.7h10.1c60-44.4 113.6-195.9 124.8-263.2z" fill="#fcb6b1"/><path d="M567.3 938.1c-10.2 10.3-21.1 19.9-32.7 28.5-2.7 2.1-5.5 4.1-8.5 6.2-29.3 20.7-71.2 42.4-116 41.7-62-1-131-80-183-196-40.6-90.6-55-149-150-223-93.4-72.8-45-68-30-61-90.3-76-23-59-23-59-72-77 45-26 45-26s-67.8-67.3 16-35c70 27 112 56 112 56 25-8 166.3 129.2 215.4 192.7 3.2 4.1 6 7.9 8.6 11.3 9.1 12.1 17.6 24 25.7 35.5.1.2.2.3.4.5 15.6 22.3 29.3 43.5 41.3 63.2 61 100.2 78.8 164.4 78.8 164.4z" fill="#f4ada2"/><g fill="#9b3c82"><path d="M567.3 938.1c-10.2 10.3-21.1 19.9-32.7 28.5-2.7 2.1-5.5 4.1-8.5 6.2-4.5 3.1 9.4-105.5-37.7-199.1 61.1 100.2 78.9 164.4 78.9 164.4zM210 549.8c.4-1.4-.4-2.7-1.7-3.1-1.4-.4-2.7.4-3.1 1.7-11.6 41.9 8 87 21.3 107 .5.7 1.3 1.1 2.1 1.1.5 0 1-.2 1.4-.2 1.2-.8 1.5-2.4.7-3.5-12.9-19.4-31.8-62.8-20.7-103zM98.2 566.1c.4.2.9.4 1.4.4.8 0 1.6-.4 2-1.1.8-1.2.5-2.7-.6-3.5-1.8-1.3-3.7-2.6-5.7-4-14-9.8-32.8-22.9-61.8-35.2 4 3.6 8.4 7.4 13.3 11.5 20.1 9.9 34.4 19.9 45.6 27.8 2 1.5 4 2.8 5.8 4.1zm6-41.1c.4.3.9.5 1.4.5.8 0 1.6-.4 2.2-1.1.8-1.1.5-2.7-.6-3.5-2.1-1.5-4.4-3.3-7.1-5.3-15.1-11.4-39.6-30-84.7-49.8 2.4 2.9 5.2 6 8.3 9.3C61.8 493 83.4 509.3 97 519.7c2.7 2 5.1 3.8 7.2 5.3zm16.6-38.3c.5.5 1.1.8 1.8.8s1.3-.3 1.6-.7c1-.9 1.1-2.5.1-3.5-.8-.9-18.8-19.5-66.3-46 5.4 6.4 10.4 11.4 11 12.1 36.9 22 51.6 37.1 51.8 37.3zm67.9-14c-6.6 16.4 16.4 51.8 38.7 86 9.8 15 19 29.2 24 39.4.4.9 1.2 1.4 2.2 1.4.4 0 .8-.1 1-.4 1.3-.6 1.8-2.1 1.2-3.3-5.1-10.5-14.4-24.8-24.3-39.9-19.5-30-43.9-67.4-38.2-81.4.7-1.7 2-3.1 3.8-4-.1-.1-1.7-1.1-4.5-3-1.8 1.4-3.1 3.1-3.9 5.2z"/></g><path d="M794.7 18.1c13.4-4 32.4-2.4 47.6 9.9 26.8-49.5 94.9-26.3 96.4 15.7 55.7-27.3 104.3 38.7 75.6 79-10.5 14.8-29.4 46.3-27.5 75.3-25.8 6-81.4 55-81.4 55s-82.9-122.6-120.8-142.8c-47.2-25.2-25.1-81.6 10.1-92.1z" fill="#5b2448"/><path d="M859.8 58.3c.2 1.2 1.2 2.2 2.5 2.2h.3c1.4-.2 2.4-1.4 2.2-2.8-1.9-16.4-11.1-27.7-19.5-34.7-.9 1.4-1.8 2.9-2.7 4.4 7.5 6.5 15.5 16.6 17.2 30.9z" fill="#9b3c82"/><path d="M711.8 261.8c-4.4 14.3-.1 31.1 13.3 43.1 34.8 31.2 89.7 30.7 89.7 30.7s-9.7 71.9-19.7 106.9c0 0 99 123 201-5 0 0-29.8-66.4-42.9-140.1 28.9 2.5 78.9-17.2 80.5-56.7.9-22.5-18.1-45.4-42.1-43.9-23.2 1.4-34.4 12.6-56.3 27.8-20.3 14.1-22.8 3.1-28.9-20.8-5.4-21.2-16.4-41.2-25.3-52.9-20.1-26.4-65.5-37-96.3-40.6-5.1 22.9-11.7 45.3-19.8 67.3-14 38.6-42.9 50.9-53.2 84.2z" fill="#f4ada2"/><path d="m880.5 172.7.5-2.4c.1-.7.2-1.5.3-2.2.1-1.4.1-2.8.1-4.3-.2-2.8-.7-5.7-1.5-8.4-1.7-5.7-4.8-11-8.9-15.3-2.2-2.3-4.6-4.3-7.3-6s-5.7-2.9-8.8-3.6c-3-.7-6.2-1-9.3-.7s-6 1.2-8.7 2.6c-3.4 1.9-4.7 6.3-2.7 9.7.4.7.8 1.2 1.4 1.7l1 .9c1.9 1.8 3.6 3 5.1 4.3 1.5 1.2 2.8 2.4 4 3.4 2.4 2.1 4.5 3.9 6.8 6s4.6 4.5 7.3 7.3l4.1 4.4c.7.8 1.5 1.6 2.2 2.4 1.7 1.9 3.9 3.3 6.3 4.1 1.3.4 2.6.5 3.9.3 1.8-.4 3.3-1.6 4-3.2 0-.2.1-.6.2-1zm-16.1 17.2c-6.3-2.8-21.4-9.3-34.4-20-1.8-1.5-4.5-1.2-6 .6-3.8 4.7-8.7 13.5 1.1 19.6 12 7.6 34 8.1 39.8 3.4.9-.8 1-2.2.3-3.1-.3-.2-.5-.4-.8-.5zm-86.8-33c6.5 2.3 11.5 2.9 24 4.1 2.4.2 4.1 2.3 3.9 4.6-.5 6.1-4.8 11.4-14.5 10.3-10.8-1.2-15.7-10.5-16.3-16.8-.1-1.2.8-2.3 2-2.4.3.1.6.1.9.2z" fill="#5b2448"/><path d="M931.1 293.2c-.6 1.3-.1 2.8 1.1 3.4 6.9 3.5 14.4 5.9 22.1 6.9-.3-1.8-.7-3.5-1-5.3-5.6-.9-12.1-2.7-18.8-6.1-1.3-.6-2.8-.1-3.4 1.1z" fill="#9b3c82"/><path d="M794.4 133.5c1.5 0 3.1-.1 4.8 0 1.7 0 3.6.2 6 .1h1.2c.7 0 1.4-.2 2-.4 3.3-1.3 5-5 3.8-8.3-.9-2.6-2.4-4.9-4.4-6.9s-4.3-3.7-6.8-5c-.4-.2-.7-.3-1.1-.5-5.3-.9-10.3-1.6-15.1-2.2-1.8 8-3.8 16-5.9 23.9 2.7-.3 5.1-.5 7.3-.6 2.8 0 5.3 0 8.2-.1zm78.1 185.2c-21.6 14.1-57.7 16.9-57.7 16.9s-2.4 18-6.1 40.4c.7 0 1.5-.1 2.3-.1 58.3-4.1 67.5-51.6 61.5-57.2z" fill="#5b2448"/><circle cx="867" cy="242.4" fill="#e57281" opacity=".52" r="28.5"/><path d="M776 235.1c2.7 2.8 6.1 4.8 9.9 5.7 3.7 1.1 7.6 1.2 11.4.4 3.7-.9 7.2-2.6 10.1-5.2s5-5.9 6.2-9.7v-.1c.4-1.2 1.6-1.9 2.8-1.5 1 .3 1.6 1.2 1.6 2.2-.3 5.1-2.5 9.9-6 13.6-1.7 1.9-3.8 3.4-6 4.7-6.7 3.8-14.8 4.4-22.1 1.6-2.4-.9-4.6-2.1-6.6-3.6-2.1-1.5-3.8-3.5-5-5.8-.6-1.1-.2-2.4.9-3 .9-.3 2-.1 2.8.7zM947.9 260c-1.4 0-2.5-1.1-2.5-2.5 0-.4.1-.9.3-1.2 21.9-38.2 57-27.8 57.3-27.7 1.3.4 2 1.8 1.6 3.1s-1.8 2-3.1 1.6c-1.3-.4-31.7-9.2-51.5 25.4-.3.8-1.2 1.3-2.1 1.3z" fill="#9b3c82"/><path d="M786.2 208.7c-.6 0-1.1-.2-1.5-.6-5.5-6-7.8-10.4-7.4-14.3.6-5 5.4-8.3 11-12.1 12.6-8.5 12.2-16.2 12.2-16.2-.1-1.1.7-2.1 1.8-2.2s2.1.7 2.2 1.8c0 .4.9 10-13.9 20-5.6 3.7-9 6.2-9.3 9.2-.3 2.6 1.8 6.3 6.3 11.2.8.8.7 2.1-.1 2.8-.3.3-.8.5-1.3.4z" fill="#5b2448"/><path d="M1474.1 1053.5c-59.3 11.1-143.4-13.8-222.9-40.5-3.1-1-6.2-2.1-9.3-3.1-21.4-7.3-42.4-14.5-62.4-21.2-3.1-1-6.2-2.1-9.3-3.1-39.8-13-75.2-22.9-101.2-24.1-55 38-126-4-116-28 0 0-22-12-18-32 0 0-26-23 4-48 0 0-160.9 7.8-55-30 127.7-45.5 316.8-11.1 383.1 3.4.8.2 1.7.4 2.5.5 13.7 3 21.5 5 21.5 5 2.7-1.4 139.7-72.2 217.7-91.4 4.4 5.5 12.5 17.3 21.8 33.3 44.2 76.1 115.4 247-56.5 279.2z" fill="#f4ada2"/><path d="M1530.6 774.3c-94.5 8.1-179.4 35.1-239.4 58.1 2.7-1.4 139.7-72.2 217.7-91.4 4.3 5.5 12.4 17.3 21.7 33.3z" fill="#9b3c82"/><path d="M1455.6 894.5c1 0 1.8-.6 2.4-1.4.6-1.3.1-2.8-1.1-3.4-47-23.9-103.2-45.3-158.9-60.7-3.7 1.9-6.1 3.1-6.7 3.4 56.9 15.5 115.9 37.7 163.2 61.8.3.2.7.3 1.1.3zM995 844.3c1.3.3 2.7-.5 3-1.8s-.5-2.7-1.8-3c-1.4-.3-34.4-8-66 13.4-.4.3-.7.6-1 1 4.5-.1 8.4-.4 9.8-.4 28-15.9 55.7-9.3 56-9.2zm8.3 37.2c1.4.1 2.6-.9 2.7-2.3s-.9-2.6-2.3-2.7c-10.3-.5-20.7-.1-30.9 1.4-20.1 3-33.9 9.7-41.3 19.7 1.6 2.2 3 3.4 3.5 3.9 15.6-23.2 67.8-20 68.3-20zm10.8 36c1.3.3 2.7-.6 3-1.9s-.6-2.7-1.9-3c-12.1-2.7-24.7-2.5-36.8.6-9 2.4-21 7.3-29.5 17.6 2.3 1.7 3.9 2.6 4.1 2.7 13.8-15.9 41.2-20.7 61.1-16zm-20.2 36.1c-1.4.4-2.2 1.7-1.8 3.1s1.8 2.2 3.1 1.8c17.6-4.7 31.2-1.2 46.9 2.8 6.4 1.6 13.1 3.2 20.3 4.4 2.2-1.2 4.4-2.7 6.6-4.2-9.2-1.2-17.6-3.1-25.6-5.1-15.8-4-30.6-7.8-49.5-2.8z" fill="#9b3c82"/><path d="M1278.6 830.9v1.5c0 3.9 0 7.9-.1 11.9v1.8c-.2 10.3-.7 20.6-1.5 31-.3 4.1-.7 8.2-1.1 12.3-4.1 43.1-12.7 86.1-24.7 123.6-3.1-1-6.2-2.1-9.3-3.1-21.4-7.3-42.4-14.5-62.4-21.2 10.2-32.4 17.6-70.4 21.1-108.2.4-4.5.8-9 1.1-13.5.8-12 1.2-24 1.1-35.7l19.9-.1 50.7-.3h2.7z" fill="#5b2448"/><ellipse cx="1241" cy="847.8" fill="#5b2448" rx="45.7" ry="65.5" transform="matrix(.1587 -.9873 .9873 .1587 206.9755 1938.4653)"/><path d="M1233.8 893c-12.5-2-23.9-6.3-33.2-12.1-.2 1.8-.3 3.6-.5 5.4 9.4 5.5 20.6 9.6 32.9 11.6 5.3.9 10.7 1.3 16.1 1.3 9.2 0 18.1-1.3 26.2-3.8.2-1.8.4-3.6.6-5.5-12.5 4.4-27.1 5.5-42.1 3.1z" fill="#fff"/><ellipse cx="1242.1" cy="840.6" fill="#fff" rx="39.2" ry="63.5" transform="matrix(.1587 -.9873 .9873 .1587 214.9536 1933.54)"/><path d="M1246.8 842.3h-.3l-37.7-4.7c-1.4-.2-2.3-1.4-2.2-2.8.2-1.4 1.4-2.3 2.8-2.2l35.1 4.4 2.3-21.7c.1-1.4 1.3-2.4 2.7-2.3s2.4 1.3 2.3 2.7v.1l-2.5 24.2c-.1 1.4-1.2 2.3-2.5 2.3z" fill="#5b2448"/></svg></g><g transform="translate(244.79999999999998 1420.8) rotate(0.0 170.40000000000003 216.0) scale(1.394732103393521 1.3998703823720025)"><svg width="244.348" height="308.6" viewBox="0 0 244.348 308.6"><rect fill="#fff" height="275.1" rx="21.026" transform="matrix(.90370179 -.42816243 .42816243 .90370179 -54.3 67.168)" width="139.988" x="52.18" y="16.75"/><g fill="#5b2448"><path d="M127.831 308.61a28.1 28.1 0 0 1-25.346-16.041L2.7 81.962a28.057 28.057 0 0 1 13.332-37.326L104.537 2.7a28.027 28.027 0 0 1 37.327 13.327l99.781 210.607a28.058 28.058 0 0 1-13.328 37.327l-3-6.326 3 6.326-88.5 41.932a27.928 27.928 0 0 1-11.986 2.717zM116.527 14a13.963 13.963 0 0 0-6 1.359L22.026 57.288a14.04 14.04 0 0 0-6.67 18.68l99.781 210.607a14.026 14.026 0 0 0 18.681 6.67l88.505-41.932a14.043 14.043 0 0 0 6.67-18.681L129.211 22.025A14.069 14.069 0 0 0 116.527 14z"/><path d="M41.834 54.214a6 6 0 0 1-2.573-11.423l47.008-22.272a6 6 0 0 1 5.139 10.845L44.4 53.635a5.98 5.98 0 0 1-2.566.579z"/></g></svg></g><g transform="translate(510.0 1592.3999999999999) rotate(0.0 97.19999999999999 82.80000000000007) scale(1.3080075089319956 1.3169823925180142)"><svg width="148.623" height="125.742" viewBox="0 0 148.623 125.742"><path d="M148.623 113.827C90.251 54.761 21.46-4.909 4.639.32A7.744 7.744 0 0 0 .834 4.4c-5.664 14 18.678 51.38 38.237 81.417 9.851 15.13 19.157 29.421 24.268 39.928" fill="#f4ada2"/></svg></g><g transform="translate(2151.6 789.6) rotate(0.0 208.20000000000005 220.8) scale(1.3612291598561626 1.3663366336633664)"><svg width="305.9" height="323.2" viewBox="0 0 305.9 323.2"><path d="M118.8 14.8 81.1 37.3c-8.5 5.1-13.2 15.4-13.6 27.4-.4 15-3.4 37.5-24.7 50.2 0 0-.1 0-.1.1l-26 15.5c-11 6.6-14.5 20.8-8 31.7l53.9 90.1c9.9 16.6 22.3 15.7 34.9 8.1l170.9-102.1c15-9 17.4-15.8 9.4-29.2-16.7-28-34.4-55.7-56.4-90.8C215.5 28.9 211.3 23 197 26c-28.7 6-40.7-8.2-52.7-13.2-8.3-3.4-17.8-2.7-25.5 2z" fill="#5b2448"/><path d="M287.8 172.8 105 282c-4 2.4-12.1 5.6-20.9 4.2-1.6-.2-3.2-.7-4.9-1.2-5.9-2.1-11.8-6.6-16.8-15.1L4.2 167.2c-8.5-14.2-3.3-27 8.6-34.1L69 99.5l125.8-75.2 101.3 94.1c10.4 17.4 18.6 38.3-8.3 54.4z" fill="#5b2448"/><path d="m98.1 250.4-14 35.9c-1.6-.2-3.2-.7-4.9-1.2l14.2-36.5z" fill="#fff"/><path d="M27 136.3c-6.9 0-12.5-5.6-12.5-12.5 0-3.1 1.1-6.1 3.2-8.4 1.4-1.5 14.1-15.2 32.4-19.3 6.7-1.6 13.5 2.6 15 9.3 1.6 6.7-2.6 13.5-9.3 15h-.2c-10.7 2.4-19.3 11.6-19.4 11.7-2.3 2.7-5.6 4.2-9.2 4.2z" fill="#5b2448"/><path d="m286.7 147.7-139.1 83.1-4.3 2.6-27.5 16.5c-12.7 7.6-25 8.5-34.9-8.1L27 151.6c-6.6-11-3-25.2 8-31.7l26-15.5h.1c1.3-.8 2.5-1.6 3.7-2.4 1.4-1 2.7-2.1 3.9-3.2 14.5-13 16.8-31.6 17.1-44.6.3-12 5.1-22.3 13.6-27.4l37.7-22.5c7.7-4.6 17.2-5.3 25.5-1.9 12.1 5 24 19.2 52.7 13.2 14.3-3 18.5 2.9 24.4 12.2 22.1 35.1 39.7 62.9 56.4 90.8 8 13.3 5.7 20.1-9.4 29.1z" fill="#9b3c82"/><path d="m147.6 230.8-4.3 2.6-78.5-131.6c1.4-1 2.7-2.1 3.9-3.2z" fill="#5b2448"/><path d="m115.3 40.7 30.3-18.1c4.3-2.6 9.9-1.2 12.4 3.1l.1.2c2.6 4.3 1.2 9.9-3.1 12.4l-30.3 18.1c-4.3 2.6-9.9 1.2-12.4-3.1l-.1-.2c-2.6-4.2-1.2-9.8 3.1-12.4zm154.3 79.2-3.6 2.7-17.1 12.5-27.6 20.3-.1.1-.4.3c-1.4 1-2.8 2-4.3 2.8-25.9 15.5-59.3 7.6-75.7-17.7-16.7-26-9.2-60.5 16.7-77.2L182.8 45l18.8-13.8z" fill="#ffcf2d"/><path d="M235.4 131.7c-30.9 0-55.9-25-56-55.8 0-17.6 8.3-34.1 22.2-44.6L182.8 45c-5.3 9-8.3 19.5-8.3 30.8 0 33.6 27.3 60.8 60.9 60.8 4.6 0 9.2-.5 13.5-1.5l17.1-12.5c-8.8 5.7-19.3 9-30.6 9.1z" fill="#9b3c82"/><circle cx="235.3" cy="75.8" fill="#ffcf2d" r="55.9"/><path d="M274.7 75.8c0 21.8-17.6 39.4-39.4 39.4-1.1 0-2.3 0-3.4-.1-1.7-.1-3.4-.4-5.1-.8-3.9-.8-7.6-2.3-11-4.2-1.5-.8-2.9-1.8-4.3-2.8-9.5-7.2-15.7-18.6-15.7-31.4 0-21.8 17.6-39.4 39.4-39.4 1.2 0 2.4 0 3.5.2 1.7.2 3.4.4 5.1.8 3.9.9 7.6 2.3 11 4.3 1.5.9 2.9 1.8 4.3 2.8 9.5 7 15.6 18.4 15.6 31.2z" fill="#66b0f0"/><g fill="#fff"><path d="m238.9 36.5-27.3 70.7c1.4 1 2.8 2 4.3 2.8L244 37.3zm20.3 7.9L231.9 115l-5-.8 28-72.6z"/></g></svg></g><g transform="translate(2374.7999999999997 1472.3999999999999) rotate(0.0 244.20000000000005 248.39999999999998) scale(1.3730671914534722 1.3750345972875724)"><svg width="355.7" height="361.3" viewBox="0 0 355.7 361.3"><path d="M254.1 47.5c-3.7 0-7.3-1.7-9.6-4.5-.1-.1-11.9-14.1-27.7-18.4-6.6-1.9-10.5-8.8-8.6-15.4s8.6-10.4 15.2-8.7C247 7 263.1 26.3 263.8 27.1c4.4 5.3 3.6 13.2-1.7 17.6-2.4 1.8-5.2 2.8-8 2.8zm89.1 127.4c-6.5 0-12-5.1-12.5-11.6-1.2-16.4-12.6-30.6-12.7-30.8-4.3-5.4-3.5-13.2 1.9-17.6 5.3-4.3 13.1-3.5 17.5 1.7.7.8 16.5 20.3 18.3 44.8.5 6.9-4.7 12.9-11.6 13.4-.3.1-.6.1-.9.1z" fill="#5b2448"/><path d="M206.7 359.3c-29.7-10.6-11.7-66.6-2.4-117.1 1.9-10.3-.9-20.8-7.5-28.9l-55.2-67.1c-6.6-8.1-16.4-12.8-26.9-12.9-41.6-.5-87.9 3.8-106.4-11.1-4.4-3.4-7.2-8.4-8-13.9C-4 79.5 31.1 39.8 90.8 16.9c106.4-40.7 160 8.7 202.7 60.7s80.9 114.1 20.3 210.6c-33.9 54.2-79.6 80.9-107.1 71.1z" fill="#ffcf2d"/><path d="M241.5 218.6c6.3-17.5 2.9-37-8.9-51.3l-19.4-23.6-19.4-23.7c-11.8-14.4-30.3-21.4-48.7-18.7L8.3 122.2c18.5 15 64.8 10.6 106.4 11.1 10.4.1 20.3 4.9 26.9 12.9l27.6 33.6 27.6 33.6c6.6 8.1 9.4 18.6 7.5 28.9-7.5 40.9-20.8 85.5-9.7 106.5z" fill="#5b2448"/><circle cx="218.6" cy="194.2" fill="#9b3c82" r="11"/><circle cx="165.3" cy="129.4" fill="#9b3c82" r="11"/><circle cx="284.9" cy="216.1" fill="#21a0aa" r="9.3"/><circle cx="312.2" cy="193.6" fill="#fff" r="9.3"/><circle cx="309.7" cy="219.8" fill="#f94f46" r="9.3"/><g fill="#9b3c82"><circle cx="286.1" cy="191.1" r="9.3"/><path d="M168.9 23.5c0-.6-.2-1.1-.6-1.6-.9-1.1-2.5-1.2-3.5-.3l-19.7 16.2c-.4.4-.7.9-.9 1.4-.3 1.4.6 2.7 1.9 3l19.9 4.2c.2 0 .3.1.5.1 1.4 0 2.5-1.2 2.5-2.5zm26.6 32.4-19.9-4.2c-.2 0-.4-.1-.5-.1-1.4 0-2.5 1.1-2.5 2.5l.2 20.4c0 1.4 1.1 2.5 2.5 2.5.6 0 1.1-.2 1.6-.6l19.7-16.2c.4-.4.7-.9.9-1.4.2-1.3-.6-2.7-2-2.9zm3-12.9-16.2-19.7c-.4-.4-.9-.7-1.4-.9-1.4-.3-2.7.6-3 1.9l-4.2 19.9c0 .2-.1.3-.1.5 0 1.4 1.1 2.5 2.5 2.5l20.4-.2c.6 0 1.1-.2 1.6-.6 1.1-.8 1.3-2.3.4-3.4zm-32.6 7.7-20.3.3c-.6 0-1.1.2-1.6.6-1.1.9-1.2 2.5-.3 3.5l16.2 19.7c.5.6 1.2.9 1.9.9.2 0 .4 0 .6-.1.9-.2 1.7-1 1.9-1.9l4.2-19.9c0-.2.1-.4.1-.5-.2-1.5-1.3-2.6-2.7-2.6z"/></g></svg></g><g transform="translate(1353.6 483.59999999999997) rotate(0.0 262.79999999999995 135.00000000000003) scale(1.3860759493670884 1.3789581205311545)"><svg width="379.2" height="195.8" viewBox="0 0 379.2 195.8"><path d="M348 85.4c8.9-7.8 12.9-15.1 11.2-21.2-3.6-12.6-35.7-30-90-38.7-59.7-9.5-129.4-6.3-191.3 8.8-5.3 1.2-10.5-2-11.8-7.3-1.2-5.2 1.9-10.4 7.1-11.7 64.3-15.7 136.8-19 199-9.1 27.5 4.4 51.7 11.2 69.9 19.7 10.4 4.9 18.7 10.2 24.8 15.9 10.4 16.8-.7 30.1-18.9 43.6z" fill="#9b3c82"/><path d="M330.5 120.1c-16.9 8.7-34.4 16-52.4 21.8-1.4.4-2.9.6-4.4.3-5.3-.8-9-5.8-8.2-11.1.5-3.7 3.2-6.8 6.7-7.9.1 0 6.6-2.1 15.9-5.7 11.4-4.3 22.6-9.3 33.5-14.9 11.2-5.9 20-11.7 26.4-17.3 18.2-13.5 29.3-26.8 18.8-43.6 5.7 5.4 9.4 11 11.1 17.1 6.1 21-9.9 41.6-47.4 61.3z" fill="#5b2448"/><path d="M278.8 59.3c-24-4.4-58.8-10.1-90.6-20.4C152.5 28.5 119.8 18.7 95.1 6c-32.1-16.6-66 5-74.7 23.5C15.9 39.1 59 42.8 57 50.2c-10 37.3 6 59.4 33.7 71 21.5 9.1 43.4 17.1 65.7 24 31.3 9.4 58.2 27 81.4 29.3l-9.2 17.8s23-8.2 39.9-22.2c10.1-8.4 13.7-17.7 17-26.3 4.6-12.1 10.9-37.3 13.3-50.2 3.4-17.8-1.6-30.9-20-34.3z" fill="#ffcf2d"/><path d="M252.6 164.8c-6.3 15.8-16.5 31.1-44.2 31-25.1-.1-54.1-20.9-88.5-31.8-22.8-7.4-45.2-16-67.1-25.7-28.2-12.4-44.2-35.4-33.3-73.5 2.2-7.5-6.2-21.7-1.6-31.6 10.2-22.2 30.4-21.3 42-15.9 25.8 12.1 58 26.9 94.5 38.2 32.4 11.2 68.1 17.6 92.7 22.6 18.8 3.8 23.7 17.4 20 35.6-2.7 13-9.6 38.8-14.5 51.1z" fill="#5b2448"/><path d="M236.5 173.3c-6.3 15.8-17.6 25-36.1 21.9-24.7-4.1-62.2-11.9-96.5-22.8-22.8-7.4-45.2-16-67.1-25.7C8.5 134.3-7.5 111.4 3.5 73.2c2.2-7.5 6.4-20.6 10.1-30.9 6.7-18.8 18.6-22.1 30.2-16.6 25.8 12.1 58 26.9 94.5 38.2C170.8 75 206.4 81.5 231 86.4c18.8 3.8 23.7 17.4 20 35.6-2.7 13.2-9.6 38.9-14.5 51.3z" fill="#66b0f0"/><g fill="#fff"><path d="M191.9 78.4 45.5 148.6c-.6.3-1 .8-1.3 1.4 1.7.8 3.5 1.5 5.2 2.2l150.4-72.1c-2.5-.5-5.2-1.1-7.9-1.7zm47.5 10.8L80.9 164.6l6.6 2.4 156.8-74.6c-1.4-1.2-3-2.3-4.9-3.2z"/></g></svg></g><g transform="translate(529.1999999999999 663.6) rotate(0.0 240.60000000000002 346.2) scale(1.3847163230774546 1.3868080981260864)"><svg width="347.508" height="499.276" viewBox="0 0 347.508 499.276"><path d="M249.883 433.357a2.473 2.473 0 0 1-.516-.054c-.345-.072-34.545-7.678-35.4-45-.8-34.9-20.115-47.514-43.367-59.32a2.5 2.5 0 1 1 2.263-4.458c23.8 12.084 45.238 26.047 46.1 63.664.766 33.289 30.183 39.95 31.435 40.218a2.5 2.5 0 0 1-.515 4.946zm95.123 65.919a2.483 2.483 0 0 1-1.493-.5 136.583 136.583 0 0 1-32.82-37.889c-12.472-21.635-22.387-55.448 1.209-93.677 18.254-29.574 25.116-53.153 21.593-74.2-3.086-18.446-13.961-35.879-36.363-58.294a2.5 2.5 0 0 1 3.537-3.535c40.523 40.546 54.994 74.652 15.487 138.658-17.875 28.96-18.282 58.709-1.209 88.418a133.989 133.989 0 0 0 31.553 36.516 2.5 2.5 0 0 1-1.5 4.5z" fill="#ffcf2d"/><path d="M114.877 324.643a206.336 206.336 0 0 1-19.693-10A210.914 210.914 0 0 1 76.6 302.426a184.744 184.744 0 0 1-17.216-14.352A178 178 0 0 1 44 271.533l-1.8-2.195-1.717-2.262c-1.142-1.51-2.311-3.013-3.359-4.567-2.147-3.087-4.352-6.148-6.317-9.367-1-1.6-2.044-3.174-3-4.8L25 243.418l-1.4-2.467-1.3-2.522-2.6-5.055a196.776 196.776 0 0 1-8.772-21.019 187.8 187.8 0 0 1-6.369-21.978c-.766-3.747-1.612-7.485-2.155-11.283-.283-1.9-.66-3.78-.862-5.69l-.665-5.725a179.747 179.747 0 0 1-.78-23.1c.021-3.868.42-7.727.671-11.6.207-1.928.457-3.854.7-5.781.127-.963.229-1.929.377-2.889l.5-2.876a160.384 160.384 0 0 1 5.482-22.751L9.684 93.1l2.163-5.483c.689-1.841 1.528-3.623 2.349-5.414l1.233-2.685.619-1.342.685-1.312 2.753-5.243c.952-1.73 2-3.41 3.006-5.115.512-.846 1.006-1.7 1.534-2.541l1.659-2.465c1.127-1.629 2.171-3.318 3.377-4.895a147.092 147.092 0 0 1 15.672-17.949 149.24 149.24 0 0 1 18.537-15.025c1.667-1.085 3.366-2.124 5.05-3.183.849-.519 1.679-1.069 2.543-1.561l2.62-1.434c1.759-.932 3.47-1.956 5.273-2.8l5.4-2.546c.893-.442 1.819-.8 2.742-1.174l2.77-1.113 2.774-1.11c.93-.352 1.88-.645 2.821-.97 1.886-.622 3.761-1.289 5.662-1.865l5.752-1.549A147.788 147.788 0 0 1 153.646.453c.976.072 1.956.123 2.929.215l2.913.343c1.939.248 3.89.42 5.815.739l5.769.977a39.09 39.09 0 0 1 2.866.561l2.851.626c3.821.758 7.543 1.877 11.286 2.9 1.852.574 3.687 1.195 5.529 1.792l2.756.912 2.712 1.027c1.805.694 3.621 1.353 5.409 2.08l5.311 2.3c1.782.736 3.5 1.605 5.232 2.447 1.724.857 3.475 1.659 5.158 2.588 3.363 1.862 6.76 3.656 10 5.714 1.624 1.018 3.3 1.956 4.875 3.042l4.762 3.2c1.608 1.039 3.108 2.228 4.655 3.347 1.523 1.153 3.09 2.246 4.56 3.463 2.949 2.423 5.952 4.771 8.75 7.356a199.42 199.42 0 0 1 16.173 16.031 210.333 210.333 0 0 1 26.2 36.789 192.771 192.771 0 0 1 22.127 63.075 172.368 172.368 0 0 1 2.078 22.051l-4.973.512a198.854 198.854 0 0 0-4.951-20.8 190.99 190.99 0 0 0-7.03-20.028 204.922 204.922 0 0 0-19.947-37.012 212.356 212.356 0 0 0-26.69-31.969 195.092 195.092 0 0 0-32.432-25.391c-23.208-14.433-49.63-23.415-76.228-24.774C125.56 23.129 99 29.86 77.385 44.572c-21.749 14.513-37.94 36.628-46.57 61.769a136.455 136.455 0 0 0-5.227 19.315l-.5 2.464c-.151.824-.259 1.658-.391 2.487l-.77 4.982c-.335 3.348-.833 6.686-.972 10.064a173.961 173.961 0 0 0 2.151 40.631 195.407 195.407 0 0 0 11.327 39.59l2.038 4.771 1.019 2.39 1.123 2.342 2.246 4.694c.78 1.55 1.618 3.071 2.416 4.614 1.562 3.111 3.365 6.087 5.114 9.1.854 1.53 1.8 2.967 2.73 4.427l1.394 2.191 1.466 2.145a185.678 185.678 0 0 0 27.4 31.69 207.62 207.62 0 0 0 16.279 13.685c5.631 4.372 11.543 8.4 17.579 12.307z" fill="#5b2448"/><ellipse cx="138.364" cy="292.533" fill="#9b3c82" rx="40.073" ry="49.383" transform="matrix(.6406191 -.76785882 .76785882 .6406191 -174.898 211.373)"/><path d="M235.941 298.425a11.994 11.994 0 0 1 2.45 17.016c-15.989 20.679-39.148 27.342-68.3 6.76l-70.578-51.409C71.013 250.13 70.4 225.16 85 203.741a11.991 11.991 0 0 1 16.961-2.908z" fill="#21a0aa"/><ellipse cx="285.798" cy="193.569" fill="#9b3c82" rx="40.073" ry="49.383" transform="matrix(.95329089 -.30205378 .30205378 .95329089 -45.119 95.367)"/><path d="M254.291 286.107a11.993 11.993 0 0 0 14.82 8.713c25.195-6.965 40.133-25.875 32.126-60.649l-20.845-84.793c-8.328-34.2-31.2-44.232-56.557-38.833a11.991 11.991 0 0 0-9.115 14.6z" fill="#21a0aa"/></svg></g><g transform="translate(660.0 1888.8) rotate(0.0 660.5999999999999 235.19999999999993) scale(1.3798433420365532 1.3819036427732077)"><svg width="957.5" height="340.4" viewBox="0 0 957.5 340.4"><path d="M936.8 325.9c-2.7 5-7.9 8.2-13.6 8.2l-337.1-.1-3.7-3.5-1.6 3.5h-18.7l-9.9-30.7h16.9l3.7 3 1.7-3h295.3c1.7.6 49 16.5 67 22.6z" fill="#9b3c82"/><path d="M580.8 334v.1l-.1-.1-11.6-30.7-4.9-12.9.2-.1 4.9 13h5.1l11.7 30.7z" fill="#fff"/><g fill="#ffcf2d"><path d="M580.8 334.1H115.4L1.4 29.5C-2.8 18.2 2.9 5.6 14.2 1.4 16.7.5 19.3 0 21.9 0H419c22.1 0 41.9 13.7 49.7 34.5l95.7 255.8 4.9 13z"/><circle cx="606.2" cy="318.9" r="4.8"/><path d="M628.5 322.5c-2.2 0-4-1.8-4-4s1.8-4 4-4l32.8-.1c2.2 0 4 1.8 4 4s-1.8 4-4 4z"/></g><path d="M277.3 204.5c-10.7 0-19.9-7.8-21.7-18.4-1.7-9.9 5-19.3 14.8-20.9 8.2-1.4 15.9 4.1 17.3 12.3 1.2 6.8-3.4 13.3-10.2 14.4-3 .5-6.1-.3-8.5-2.3-1.1-.9-1.2-2.5-.3-3.5.9-1.1 2.5-1.2 3.5-.3 1.2 1 2.9 1.5 4.4 1.2 4.1-.7 6.8-4.6 6.1-8.7-.9-5.5-6.1-9.1-11.6-8.2-7.2 1.2-12 8-10.7 15.2 1.6 9.3 10.4 15.5 19.7 13.9 12-2 20-13.4 17.9-25.3-2.6-15.3-15.2-24.1-30.6-21.5-9.3 1.6-16.9 6.4-21.4 13.5-4.7 7.4-5.8 16.9-3.1 26.7.4 1.3-.4 2.7-1.8 3.1-1.3.4-2.7-.4-3.1-1.8-3.1-11.2-1.7-22.1 3.7-30.7 5.3-8.3 14.1-13.9 24.8-15.7 18-3.1 33.3 7.7 36.4 25.6 2.5 14.7-7.4 28.6-22 31.1-1.1.2-2.4.3-3.6.3z" fill="#fff"/></svg></g><g transform="translate(553.1999999999999 1350.0) rotate(0.0 120.0 133.19999999999993) scale(1.3849536329064984 1.3872037741940517)"><svg width="173.291" height="192.041" viewBox="0 0 173.291 192.041"><g fill="#ffcf2d"><path d="M61.02 125.844a2.5 2.5 0 0 1-1.6-4.421l61.668-51.385a2.5 2.5 0 1 1 3.2 3.841l-61.669 51.386a2.491 2.491 0 0 1-1.599.579zM2.5 83.075a2.5 2.5 0 0 1-2.431-3.081L18.714 1.919a2.5 2.5 0 1 1 4.863 1.162L4.932 81.156A2.5 2.5 0 0 1 2.5 83.075zm88.04 108.966a2.5 2.5 0 0 1-.055-5l80.25-1.829a2.5 2.5 0 0 1 .113 5L90.6 192.04z"/></g></svg></g><g transform="translate(430.8 603.6) rotate(0.0 1086.6 400.2) scale(1.383670623740533 1.3837815409351417)"><svg width="1570.605" height="578.415" viewBox="0 0 1570.605 578.415"><g fill="#66b0f0"><path d="M1568.1 578.415a2.5 2.5 0 0 1-2.481-2.218c-6.766-59.644-23.623-119.257-47.465-167.86a2.5 2.5 0 1 1 4.488-2.2c24.089 49.1 41.116 109.3 47.945 169.5a2.5 2.5 0 0 1-2.487 2.782zm-281.605-440.361a2.486 2.486 0 0 1-1.5-.5c-50.607-38.221-106.615-68.268-161.969-86.894a2.5 2.5 0 0 1 1.594-4.739c55.859 18.8 112.358 49.1 163.388 87.643a2.5 2.5 0 0 1-1.508 4.5zM425.746 62.011a2.5 2.5 0 0 1-1.083-4.755C483.158 29.222 541.841 11.039 609.345.032a2.5 2.5 0 0 1 .8 4.935C543.129 15.9 484.876 33.943 426.824 61.765a2.487 2.487 0 0 1-1.078.246zM2.5 546.42a2.5 2.5 0 0 1-2.4-3.19 577.568 577.568 0 0 1 75.6-161.965 2.5 2.5 0 0 1 4.156 2.781A572.524 572.524 0 0 0 4.9 544.609a2.5 2.5 0 0 1-2.4 1.811z"/></g></svg></g></svg>