<svg height="1456.284" viewBox="0 0 1550.323 1456.284" width="1550.323" xmlns="http://www.w3.org/2000/svg" xmlns:xlink="http://www.w3.org/1999/xlink"><clipPath id="a"><path d="m384.499 189.958c9.053 23.368 23.355 56.092 36.671 85.437 19.349 42.64 53.218-24.853 40.99-57.076-18.87-49.725-84.161-45.14-77.661-28.36z"/></clipPath><clipPath id="b"><ellipse cx="415.737" cy="233.638" rx="29.217" ry="30.986" transform="matrix(.89449002 -.44708791 .44708791 .89449002 -60.592 210.521)"/></clipPath><clipPath id="c"><ellipse cx="520.609" cy="174.719" rx="34.768" ry="36.874" transform="matrix(.89449002 -.44708791 .44708791 .89449002 -23.186 251.191)"/></clipPath><path d="m1255.166 1302.483c-85.94 58.56-192.43 102.12-321.17 118.48-3.16.4-6.32.78-9.5 1.15-2.02.23-4.04.46-6.06.68-109.05 12.07-203.7 7.73-288.6-7.97-19.68-74.37-66.16-275.62-32.58-384.79 25.66-85.18 418.17-194.11 494.63-121.63 39.53 37.48 65.32 91.811 102.81 188.09 16.07 41.26 51.11 170.97 60.47 205.99z" fill="#2471ed"/><path d="m933.996 1420.964c-3.16.4-6.32.78-9.5 1.15-2.02.23-4.04.46-6.06.68l-104.84-241.75c-1.65-3.8.09-8.21 3.89-9.86s8.22.1 9.87 3.9z" fill="#004ebf"/><path d="m566.383 396.483c-29.256 11.175-148.674 48.472-144.675 78.28 3.998 29.808 106.162 518.095 175.549 555.272s141.252 3.581 176.867-10.537c37.123 8.32 114.019-10.015 166.647-42.818 0 0 147.283-26.352 151.114-68.277 7.391-80.871-69.612-195.631-116.761-341.38-23.84-73.697-70.659-200.017-108.573-214.965-37.913-14.948-116.937 16.313-116.937 16.313z" fill="#5917c1"/><path d="m774.126 1027c-2.935 0-5.72-1.733-6.923-4.61-1.597-3.822.206-8.215 4.027-9.812 24.816-10.373 46.915-32.61 47.135-32.833 2.909-2.949 7.657-2.983 10.606-.074 2.949 2.908 2.982 7.657.074 10.606-.986 1-24.464 24.619-52.03 36.141-.945.395-1.926.582-2.89.582z" fill="#330096"/><path d="m718.557 304.857s-25.237-48.854-31.979-65.874c-9.542-24.089-30.859-98.939-30.859-98.939-26.965-40.751-95.377-.512-136.129 26.452-40.751 26.965-51.928 79.859-15.963 120.611 0 0 36.378 98.778 48.453 131.722 9.1 24.829 24.414 68.575 85.352 57.884 63.382-11.12 92.853-75.424 95.826-107.949 1.931-21.124-1.836-44.467-14.7-63.908z" fill="#f4bbab"/><path d="m367.388 140.35c2.414 25.764 84.95 206.288 98.894 226.547 19.866 28.864 130.881-14.478 184.391-97.62 30.584-47.521-10.111-163.7-73.827-208.112-79.092-55.13-216.286 6.314-209.459 79.185z" fill="#f4bbab"/><path d="m404.711 180.113c11.991-10.01-1.545-30.339-11.701-21.551-6.384 5.524-25.699 24.684-26.059 39.331-.234 9.498 4.064 18.479 11.683 8.697s14.577-16.877 26.076-26.477z" fill="#111"/><path d="m467.076 140.521c-13.149 10.62-29.521-8.749-14.791-18.598 18.706-12.508 54.993-21.116 72.39-12.586 17.396 8.53 15.418 17.373 3.014 16.997s-42.996-.042-60.612 14.186z" fill="#111"/><path d="m622.19 169.661c-1.849 11.809-13.417 19.612-19.392 2.77s-1.881-48.712-25.943-60.926c-26.117-13.257-52.19-50.396-76.129-47.404-94.526 11.812-111.434 61.279-142.359 65.229-18.339 2.343-48.039-3.94-56.384-39.584 0 0 31.955-.114 53.508-13.553 0 0-31.88-3.936-34.647-43.5 0 0 42.4 18.542 65.951 4.634-11.106-23.325 13.029-37.699 38.056-19.13-5.167-10.654 1.273-31.468 27.78-6.161 0 0 30.757-20.059 56.371 3.509 0 0 56.693-18.177 93.029 25.66 0 0-12.988-20.752-6.765-24.501 6.224-3.749 69.641 104.404 66.021 136.135s-39.099 16.823-39.099 16.823z" fill="#111"/><path d="m524.867 234.982c-3.974 0-7.977-.387-11.964-1.172-16.074-3.162-29.955-12.394-39.085-25.996s-12.417-29.945-9.256-46.02c3.162-16.074 12.395-29.955 25.996-39.085 13.602-9.13 29.945-12.417 46.02-9.256 16.074 3.162 29.955 12.394 39.085 25.996s12.417 29.945 9.256 46.019c-3.162 16.074-12.395 29.955-25.996 39.085-10.228 6.866-22.007 10.427-34.055 10.427zm-.197-107.667c-8.878 0-17.844 2.54-25.752 7.849-21.212 14.239-26.885 43.079-12.646 64.291 6.897 10.275 17.383 17.25 29.526 19.638 12.144 2.389 24.49-.095 34.764-6.992 10.275-6.897 17.25-17.384 19.638-29.526s-.094-24.489-6.992-34.764c-8.93-13.302-23.606-20.495-38.538-20.495z" fill="#656c72"/><path d="m418.404 292.919c-18.268 0-36.219-8.797-47.144-25.072-8.438-12.57-11.476-27.673-8.554-42.527s11.454-27.682 24.023-36.12c12.57-8.438 27.673-11.475 42.527-8.553s27.682 11.454 36.12 24.023c17.418 25.948 10.478 61.229-15.47 78.647-9.674 6.493-20.645 9.602-31.503 9.602zm-.172-98.35c-8.188 0-16.191 2.42-23.142 7.086-9.243 6.205-15.517 15.637-17.666 26.561-2.148 10.923.085 22.029 6.29 31.272 12.808 19.081 38.752 24.183 57.833 11.376 19.081-12.808 24.184-38.752 11.376-57.833-6.205-9.243-15.637-15.517-26.561-17.665-2.708-.533-5.43-.796-8.13-.796z" fill="#656c72"/><path d="m461.423 219.725c-.192 0-.386-.008-.581-.022-4.13-.316-7.222-3.92-6.905-8.051.675-8.814 7.967-14.848 14.895-16.918 6.928-2.069 13.5-.415 17.152 4.319 2.53 3.28 1.921 7.99-1.358 10.519-3.055 2.356-7.349 1.99-9.967-.719h-.019c-.761 0-2.354.325-3.874 1.41-1.112.794-1.813 1.741-1.873 2.533-.301 3.935-3.588 6.928-7.47 6.928z" fill="#656c72"/><path d="m569.44 151.13c-2.792 0-5.473-1.566-6.764-4.251-1.795-3.733-.225-8.214 3.508-10.01 23.799-11.446 57.307-24.426 73.396-23.349 4.133.277 7.258 3.852 6.981 7.985-.278 4.133-3.858 7.259-7.985 6.981-10.365-.697-38.063 8.516-65.892 21.9-1.048.504-2.155.743-3.245.743z" fill="#656c72"/><path d="m621.2 165.151c-3.204-36.641 28.618-65.955 55.711-37.396 27.093 28.558 8.785 66.201-13.272 72.292s-40.406-11.653-42.439-34.895z" fill="#f4bbab"/><path d="m648.719 184.328c-2.416 0-4.787-1.164-6.234-3.321-10.047-14.967-8.073-31.636 6.038-50.961 2.442-3.345 7.134-4.078 10.48-1.634 3.345 2.443 4.077 7.135 1.634 10.48-13.095 17.934-9.924 27.46-5.698 33.755 2.309 3.439 1.392 8.099-2.047 10.407-1.283.861-2.736 1.274-4.173 1.274z" fill="#e09273"/><path d="m659.853 168.22c-.953 0-1.92-.183-2.856-.568l-14.19-5.851c-3.83-1.579-5.654-5.963-4.075-9.793 1.579-3.829 5.962-5.653 9.792-4.075l14.19 5.851c3.83 1.579 5.654 5.963 4.075 9.793-1.193 2.894-3.989 4.643-6.937 4.643z" fill="#e09273"/><path d="m563.311 297.305c-2.497 0-4.938-1.246-6.362-3.517-2.2-3.51-1.139-8.138 2.371-10.338 9.699-6.08 21.076-17.731 23.921-32.196.799-4.065 4.743-6.71 8.807-5.911s6.711 4.742 5.911 8.806c-4.743 24.113-24.675 38.251-30.671 42.01-1.238.776-2.616 1.146-3.977 1.146z" fill="#e09273"/><path d="m535.725 372.123c-3.049 0-5.915-1.873-7.035-4.899-1.438-3.885.546-8.199 4.431-9.637.329-.122 33.13-12.322 53.043-24.82 38.739-24.314 59.509-56.084 62.908-76.785.671-4.088 4.53-6.857 8.616-6.186 4.087.671 6.856 4.529 6.186 8.616-4.814 29.32-32.187 63.493-69.736 87.06-21.238 13.329-54.41 25.664-55.812 26.183-.857.317-1.737.468-2.601.468z" fill="#e09273"/><g clip-path="url(#a)"><ellipse cx="415.737" cy="233.638" fill="#fff" rx="29.217" ry="30.986" transform="matrix(.89449002 -.44708791 .44708791 .89449002 -60.592 210.521)"/><g clip-path="url(#b)"><ellipse cx="419.694" cy="244.848" fill="#111" rx="16.702" ry="27.279" transform="matrix(.89449002 -.44708791 .44708791 .89449002 -65.187 213.473)"/></g></g><ellipse cx="520.609" cy="174.719" fill="#fff" rx="34.768" ry="36.874" transform="matrix(.89449002 -.44708791 .44708791 .89449002 -23.186 251.191)"/><g clip-path="url(#c)"><ellipse cx="519.242" cy="189.202" fill="#111" rx="19.994" ry="30.474" transform="matrix(.89449002 -.44708791 .44708791 .89449002 -29.805 252.108)"/></g><path d="m489.563 233.849c-25.842-9.199-34.263 14.093-8.21 28.787" fill="#f4bbab"/><path d="m481.346 270.138c-1.248 0-2.513-.312-3.678-.969-18.471-10.418-22.39-24.62-18.081-34.073 3.882-8.513 15.434-14.384 32.49-8.312 3.902 1.389 5.939 5.679 4.55 9.581s-5.678 5.939-9.581 4.551c-8.088-2.879-12.944-1.497-13.812.403-1.189 2.608 1.74 9.111 11.801 14.785 3.608 2.035 4.883 6.609 2.848 10.217-1.378 2.443-3.921 3.817-6.54 3.817z" fill="#e09273"/><path d="m1138.311 969.909c-74.06 48-258.57 112.94-360.59 135.04-79.71 17.26-178.23 8.94-191.97-10.47 1.89-23.23 5.55-45.07 11.51-64.44.51-1.68 1.16-3.38 1.96-5.08 15.48 3.5 67.88 12.11 158.58-4.45 96.72-17.65 281.18-91.41 333.4-112.74.23.21.46.42.68.63 17.42 16.51 32.17 36.3 46.43 61.51z" fill="#e3e5e5"/><path d="m750.811 1122.078c-7.66 0-14.647-1.032-19.304-3.894-11.689-7.184-19.487-29.07-21.599-35.607-2.787-8.625-8.549-29.89-1.884-41.027 4.659-7.786 21.547-15.213 50.194-22.074 4.2-1.006 41.384-9.714 53.638-5.785 13.74 4.407 21.897 34.804 24.069 44.015 4.901 20.778 4.423 34.207-1.419 39.913-8.835 8.629-31.583 16.041-49.925 20.099-8.918 1.973-22.121 4.361-33.77 4.361zm-29.941-72.783c-1.591 2.768-1.613 13.429 3.311 28.67 4.792 14.834 11.264 25.032 15.18 27.439 3.344 2.056 17.285 3.13 41.979-2.333 21.638-4.787 37.482-11.524 42.349-15.87 1.037-2.734 1.01-14.075-3.652-31.113-5.029-18.379-10.89-26.945-12.888-28.151-3.811-1.059-21.198.39-44.603 5.928-26.668 6.31-39.69 12.799-41.676 15.43zm102.718 38.138s0 0 0 0zm-109.129-42.032h.01z" fill="#111"/><path d="m399.056 430.115c-42.756 11.669-70.133 38.077-118.248 54.787s-70.988 16.939-109.698 25.519c-54.354 12.047-65.265 76.364-50.529 103.815 30.083 56.04 91.241 94.239 130.215 109.892 23.15 9.297 62.771 12.703 99.748 2.78 29.466-7.908 78.668.657 97.853-3.449 98.8-21.142 9.407-309.377-49.341-293.344z" fill="#ea2688"/><path d="m449.364 701.212c6.337 76.249 13.544 155.65 76.496 277.324 0 0-8.695 66.831-7.174 96.932s46.927 148.035 47.737 214.042c.131 10.651-2.712 34.709-2.712 34.709 13.763 6.774 69.733 6.774 89.233-11.651 11.344-50.617 20.952-111.799 20.376-172.367-1.011-106.273-27.086-376.863-65.205-592.427-69.278-81.809-72.429-145.605-72.429-145.605-34.062 7.16-102.685 15.768-136.629 27.945-33.944 12.178 43.971 194.848 50.308 271.097z" fill="#ea2688"/><path d="m452.55 744.331c-3.924 0-7.224-3.051-7.478-7.023-3.685-57.746-12.611-88.319-22.061-120.688-1.56-5.343-3.172-10.867-4.737-16.451-1.117-3.989 1.21-8.128 5.199-9.245s8.127 1.21 9.245 5.199c1.542 5.505 3.143 10.989 4.691 16.293 9.263 31.727 18.84 64.534 22.631 123.936.264 4.134-2.874 7.698-7.007 7.962-.163.01-.324.015-.485.015z" fill="#b7006d"/><path d="m525.869 986.036c-.49 0-.986-.048-1.484-.148-4.061-.815-6.692-4.768-5.878-8.829.083-.413 8.322-42.022 11.276-101.932.204-4.137 3.723-7.324 7.86-7.122 4.137.204 7.326 3.723 7.122 7.86-3.013 61.114-11.204 102.418-11.551 104.146-.715 3.562-3.846 6.024-7.345 6.024z" fill="#b7006d"/><path d="m538.063 379.426-47.198 76.26 12.933 67.418 23.157-39.593 81.16 64.263c-31.113-54.321-36.478-78.609-51.197-116.095-6.178-15.733-18.855-52.253-18.855-52.253z" fill="#ea2688"/><path d="m608.11 555.274c-1.631 0-3.273-.529-4.651-1.62l-74.391-58.902-18.797 32.139c-1.578 2.697-4.665 4.133-7.742 3.606-3.08-.528-5.509-2.91-6.098-5.979l-12.933-67.418c-.354-1.847-.001-3.76.988-5.36l31.526-50.938c2.18-3.522 6.801-4.611 10.325-2.43 3.522 2.18 4.61 6.802 2.43 10.324l-29.987 48.451 8.62 44.94 13.078-22.361c1.097-1.875 2.953-3.183 5.088-3.584 2.133-.402 4.339.142 6.042 1.491l81.161 64.263c3.248 2.571 3.795 7.288 1.224 10.536-1.48 1.869-3.672 2.844-5.885 2.844z" fill="#b7006d"/><path d="m878.779 329.147c-48.224 8.126-138.829 19.46-138.829 19.46-1.24 59.266-8.654 87.436-32.368 157.827 17.498 102.575 112.84 356.037 179.389 517.546 30.292 73.518 74.304 149.144 113.27 209.733 86.336-32.306 163.745-76.269 223.826-138.341-40.106-82.494-22.593-189.243-67.631-273.798-16.693-31.34-60.039-54.367-94.343-114.045-56.443-98.193-135.089-386.507-183.314-378.381z" fill="#ea2688"/><path d="m718.557 304.857 91.478 32.487 8.652 106.977-77.226-16.457-33.88 78.57c15.867-75.158 21.526-143.655 10.975-201.576z" fill="#ea2688"/><path d="m707.579 513.935c-.991 0-1.999-.198-2.966-.615-3.804-1.64-5.558-6.053-3.917-9.857l33.88-78.57c1.416-3.284 4.953-5.111 8.45-4.365l67.375 14.358-7.84-96.938c-.334-4.129 2.742-7.746 6.871-8.08 4.126-.336 7.746 2.743 8.08 6.871l8.652 106.977c.191 2.362-.746 4.676-2.526 6.24-1.78 1.563-4.196 2.194-6.513 1.7l-71.211-15.175-31.444 72.922c-1.223 2.836-3.987 4.532-6.891 4.532z" fill="#b7006d"/><path d="m1539.425 1080.847h.003s-10-20.001-10-20.001h-.002c-3.69-7.379-10.206-13.344-18.664-16.128l-425.773-140.157c-16.831-5.54-34.967 3.613-40.508 20.444l-104.877 318.6c-2.757 8.374-1.874 17.071 1.781 24.38h-.003s10 20.001 10 20.001h.002s588.041-207.139 588.041-207.139z" fill="#374047"/><path d="m951.385 1295.486c-2.765 0-5.406-1.535-6.712-4.146l-10-20c-.032-.064-.063-.129-.094-.194-4.619-9.362-5.366-19.966-2.101-29.886l104.877-318.6c6.825-20.732 29.246-32.048 49.977-25.223l425.773 140.157c10.025 3.3 18.159 10.292 22.927 19.701.035.065.069.13.102.196l10 20c.99 1.98 1.055 4.296.177 6.329-.837 1.937-2.449 3.427-4.435 4.114l-587.967 207.112c-.83.297-1.684.44-2.525.44zm-3.208-30.68 6.954 13.907 573.787-202.117-6.108-12.217c-.031-.059-.062-.118-.092-.178-2.953-5.906-8.031-10.295-14.3-12.359l-425.773-140.157c-12.877-4.239-26.8 2.789-31.039 15.665l-104.877 318.6c-2.042 6.202-1.557 12.836 1.365 18.68.029.058.058.116.085.175z" fill="#374047"/><rect fill="#e3e5e5" height="512.418" rx="32.085" transform="matrix(.31268308 -.94985751 .94985751 .31268308 -269.033 1997.037)" width="399.587" x="1045.611" y="928.207"/><path d="m1405.892 1453.399c-4.164 0-8.347-.665-12.417-2.005l-425.773-140.156c-20.732-6.825-32.047-29.245-25.223-49.978l104.877-318.6c6.826-20.733 29.248-32.047 49.978-25.223l425.772 140.156c10.043 3.306 18.198 10.326 22.962 19.765s5.566 20.17 2.261 30.212l-104.877 318.6c-3.306 10.043-10.325 18.198-19.765 22.962-5.614 2.833-11.685 4.266-17.796 4.266zm-320.917-522.948c-10.33 0-19.969 6.566-23.371 16.9l-104.877 318.599c-4.239 12.876 2.789 26.801 15.665 31.04l425.773 140.156c6.237 2.053 12.901 1.554 18.764-1.404s10.222-8.023 12.275-14.261l104.877-318.599c2.054-6.238 1.555-12.902-1.404-18.764s-8.023-10.222-14.261-12.275l-425.772-140.156c-2.542-.837-5.127-1.235-7.669-1.235z" fill="#e3e5e5"/><rect fill="#374047" height="50.345" rx="10.695" transform="matrix(.31268308 -.94985751 .94985751 .31268308 -188.71 1739.749)" width="50.345" x="1082.612" y="975.098"/><path d="m1116.996 1036.745c-1.881 0-3.793-.294-5.676-.914l-27.503-9.053c-9.529-3.137-14.73-13.442-11.594-22.972l9.054-27.503c1.52-4.616 4.746-8.365 9.085-10.554 4.338-2.19 9.271-2.558 13.887-1.039l27.503 9.053c4.616 1.52 8.364 4.746 10.554 9.085s2.559 9.271 1.039 13.887l-9.053 27.503c-2.518 7.648-9.652 12.508-17.296 12.508zm-18.435-57.95c-.635 0-1.144.194-1.441.345-.441.223-1.235.76-1.595 1.853l-9.054 27.503c-.551 1.673.362 3.483 2.036 4.034l27.503 9.053c1.672.552 3.483-.362 4.034-2.036l9.053-27.503c.36-1.094.041-1.997-.182-2.438s-.76-1.235-1.854-1.595l-27.503-9.053c-.355-.117-.691-.162-.998-.162z" fill="#374047"/><g fill="#f4bbab"><path d="m1160.108 1190.363 10.386-145.951c8.053-96.76 184.747-82.055 176.694 14.705l-28.028 155.326c-13.075 86.359-172.127 62.279-159.052-24.08z"/><path d="m1160.108 1190.363c-4.338 35.72-57.677 102.575-57.362 129.148.305 25.69 150.053 91.516 163.004 74.456 7.642-10.066 19.915-30.331 43.088-78.904 11.986-25.123 14.633-56.154 10.321-100.62-6.305-65.017-159.052-24.08-159.052-24.08z"/><path d="m1102.747 1319.512c.001 35.952 8.982 99.543 19.688 112.576 10.707 13.033 68.313 17.378 81.612 6.584 5.966-4.842 6.928-47.476 7.312-58.016.962-26.394-35.849-30.505-39.167-3.474-2.285 18.619-3.318 27.03-3.318 27.03l-11.204-.42-.969-48.005-53.955-36.275z"/><path d="m1147.412 1352.989c-3.068 16.585 1.457 70.196 6.6 79.781 5.129 9.558 51.152 26.649 60.635 22.543 6.684-2.895 25.035-29.427 29.66-35.826 13.621-18.846-17.346-42.499-33.013-22.602-14.821 18.821-13.849 16.165-13.849 16.165l-8.072-6.208 4.918-41.594-46.879-12.258z"/><path d="m1188.133 1363.637c-3.787 14.067-8.333 60.448-5.448 66.671s45.73 25.449 53.684 22.734 28.803-21.515 34.035-26.368c14.992-13.906-9.607-41.267-29.802-23.946-5.813 4.985-13.259 11.688-13.259 11.688l-7.114-3.493 10.71-33.196-42.806-14.091z"/><path d="m1223.805 1375.379c-4.039 11.737-8.273 40.676-8.116 49.777.156 9.101 48.664 26.645 58.057 21.625s27.654-36.063 32.962-46.48c10.625-20.855-21.348-39.057-32.264-20.583-5.986 10.129-10.695 19.746-10.695 19.746l10.695-19.746-50.638-4.338z"/></g><path d="m1169.223 1452.201c-1.284 0-2.584-.33-3.773-1.024-.393-.229-9.692-5.701-16.868-13.233-3.777-3.965-8.218-13.088-9.035-48.741-.429-18.704.34-35.835.373-36.555.189-4.138 3.702-7.342 7.834-7.149 4.138.189 7.339 3.697 7.15 7.834-.008.167-.759 16.941-.376 34.861.71 33.191 4.529 38.914 4.962 39.458 5.632 5.91 13.455 10.532 13.533 10.579 3.569 2.095 4.77 6.688 2.678 10.26-1.396 2.383-3.903 3.712-6.478 3.712z" fill="#e09273"/><path d="m1213.332 1456.286c-.907 0-1.83-.166-2.726-.516-6.567-2.564-28.454-11.703-34.365-21.624-2.329-3.907-3.96-11.615-.168-41.305 1.995-15.62 4.569-29.935 4.678-30.537.735-4.076 4.638-6.784 8.712-6.049 4.076.735 6.785 4.636 6.049 8.712-4.545 25.197-8.105 55.781-6.251 61.71 2.589 3.793 15.798 10.815 26.803 15.12 3.857 1.508 5.762 5.858 4.254 9.715-1.157 2.961-3.988 4.772-6.987 4.772zm-24.015-29.442s0 0 0 0z" fill="#e09273"/><path d="m1250.035 1451.675c-.868 0-1.749-.151-2.61-.471-.341-.126-8.452-3.148-16.957-7.105-16.384-7.625-20.636-12.245-21.979-16.838-3.12-10.671 7.996-53.575 8.116-53.984 1.161-3.976 5.329-6.257 9.302-5.096 3.976 1.161 6.258 5.326 5.097 9.302-2.176 7.451-8.622 37.691-8.15 45.042 3.167 3.098 16.577 9.706 29.795 14.619 3.882 1.443 5.86 5.76 4.417 9.642-1.123 3.021-3.986 4.89-7.031 4.89zm-27.101-28.434h.01z" fill="#e09273"/><path d="m1277.491 1375.924c-3.391 5.795-6.245 10.28-8.688 13.817-3.196 5.838-6.709 12.423-9.406 17.517l36.412 11.986c4.745-7.61 8.818-14.862 10.897-18.944 9.761-19.159-16.427-36.075-29.216-24.376z" fill="#e3e5e5"/><path d="m878.779 329.147c180.919-19.869 233.181 108.564 338.877 184.822 16.841 12.15 44.421 34.382 57.208 78.305 15.373 52.803 95.073 103.413 113.698 189.258 12.041 55.499-126.466 141.137-210.07 93.818-112.122-63.461-139.21-143.324-169.767-195.338-24.183-41.164-41.877-73.281-83.894-102.467-63.261-43.942-142.033-237.857-46.053-248.398z" fill="#ea2688"/><path d="m1147.04 865.62c-1.667 0-3.344-.553-4.736-1.688-55.626-45.376-85.053-78.538-108.574-122.356-27.664-51.538-42.903-79.927-71.393-119.356-13.611-18.837-41.503-38.321-41.783-38.515-3.402-2.363-4.244-7.037-1.881-10.438 2.363-3.402 7.036-4.244 10.438-1.881 1.229.854 30.29 21.16 45.384 42.049 29.076 40.239 45.402 70.655 72.452 121.047 22.489 41.895 50.903 73.83 104.839 117.827 3.21 2.618 3.689 7.343 1.071 10.552-1.482 1.817-3.64 2.76-5.816 2.76z" fill="#b7006d"/><path d="m1292.432 668.213c-3.466 0-6.579-2.416-7.329-5.942-.079-.373-8.03-37.603-17.402-67.772-1.229-3.956.982-8.158 4.938-9.387 3.956-1.23 8.158.982 9.388 4.938 9.579 30.837 17.668 68.723 17.749 69.102.861 4.052-1.725 8.034-5.776 8.896-.525.112-1.05.166-1.567.166z" fill="#b7006d"/><path d="m1278.015 711.255c34.656-5.745 92.94 8.424 110.547 70.277 15.904 55.871 1.539 213.617-7.962 250.275 27.175 22.16.345 68.293-23.402 113.841-21.73 41.679-177.041 10.531-190.293-16.514-20-40.816-7.938-101.594 8.332-134.907 0 0-47.338-91.283-17.216-180.106 23.642-69.714 85.337-97.12 119.993-102.865z" fill="#ea2688"/><path d="m1175.232 1001.729c-1.067 0-2.15-.229-3.18-.712-3.75-1.759-5.364-6.225-3.605-9.975 12.365-26.362 24.435-54.967 24.556-55.253 1.608-3.817 6.006-5.607 9.824-3.999 3.817 1.609 5.607 6.007 3.999 9.824-.122.289-12.307 29.169-24.798 55.798-1.276 2.72-3.977 4.317-6.795 4.317z" fill="#b7006d"/><path d="m1153.095 932.029c-3.523 0-6.665-2.494-7.356-6.083-18.606-96.602 20.608-146.53 22.287-148.608 2.603-3.223 7.324-3.725 10.547-1.122 3.216 2.598 3.723 7.307 1.137 10.529-.193.245-9.275 11.894-16.14 34.261-6.381 20.793-12.1 55.386-3.102 102.103.783 4.067-1.879 8-5.946 8.783-.479.092-.957.137-1.427.137z" fill="#b7006d"/><path d="m1333.323 1080.486c-2.086 0-4.161-.865-5.644-2.557-2.73-3.115-2.417-7.854.697-10.583 24.046-21.074 47.086-41.011 47.316-41.21 3.132-2.71 7.869-2.368 10.579.765 2.71 3.132 2.368 7.869-.765 10.579-.229.198-23.235 20.106-47.244 41.147-1.423 1.247-3.186 1.86-4.94 1.86z" fill="#b7006d"/><path d="m1158.75 1103.788c-12.954-13.055-38.843 48.92-26.302 67.422s63.635 51.43 128.171 60.862c52.109 7.615 82.785 6.289 93.038-2.386s17.652-67.439 7.94-80.315c-5.794-7.682-30.532 3.629-90.476-4.549-74.652-10.185-102.173-30.756-112.372-41.034z" fill="#ea2688"/><path d="m1319.155 1154.958c-15.033 0-33.379-.76-53.153-3.252-46.066-5.805-95.283-26.618-112.347-42.414-3.04-2.814-3.223-7.559-.409-10.599 2.813-3.039 7.559-3.223 10.599-.409 15.042 13.923 61.465 33.175 104.033 38.54 47.775 6.02 88.042 1.423 88.443 1.376 4.119-.484 7.84 2.458 8.325 6.571s-2.455 7.84-6.567 8.326c-1.028.121-16.185 1.862-38.923 1.862z" fill="#b7006d"/><path d="m70.474 980.992c35.345 0 165.254-120.177 180.274-151.591 15.92-33.297-64.28-53.217-130.939 5.645-62.552 55.236-66.815 145.946-49.335 145.946z" fill="#111"/><path d="m213.311 835.244c39.794-12.89 87.592 37.631 114.444 76.163 20.258 29.069-84.707 136.789-116.706 114.23-35.385-24.946-44.573-34.985-75.492-66.976-8.913-9.222-16.722-8.317-14.634-22.704 4.592-31.651 39.579-83.607 92.389-100.713z" fill="#f4bbab"/><path d="m266.41 847.546s72.648 52.121 119.673 126.699c14.589 23.138 33.605 63.011 39.415 73.733 9.78 18.051-23.719 44.774-39.973 20.952-15.7-23.01-29.085-45.635-34.819-55.549-2.045-3.537-4.51-6.811-7.338-9.76l-122.465-109.633z" fill="#f4bbab"/><path d="m238.045 871.101s83.155 112.76 88.964 123.482c9.78 18.051-21.642 43.216-39.973 20.952-17.546-21.311-92.451-111.91-92.451-111.91l43.459-32.525z" fill="#f4bbab"/><path d="m197.551 896.213s80.746 109.348 86.556 120.07c9.78 18.051-21.642 43.216-39.973 20.952-17.546-21.311-94.027-111.74-94.027-111.74z" fill="#f4bbab"/><path d="m189.86 976.46c17.514 24.185 41.965 53.225 47.774 63.947 9.78 18.051-15.32 35.915-39.973 20.952-30.641-18.598-75.806-65.584-80.761-114.121-1.365-13.369 6.845-34.262 21.15-34.012 7.33.128 11.477 7.536 51.809 63.233z" fill="#f4bbab"/><path d="m266.41 847.546c-15.945-9.033-15.662-18.145-15.662-18.145l-31.855-175.823c-8.34-68.942-182.806-59.804-180.417 27.799 2.065 75.723 52.141 182.634 60.481 201.677 5.597 12.779 13.091 33.232 17.945 64.185 1.537 9.804 22.995 44.357 102.843-3.165 46.008-27.382 62.61-87.494 46.666-96.527z" fill="#f4bbab"/><path d="m247.089 1053.478c-2.071 0-4.133-.853-5.615-2.524l-28.355-31.98c-2.748-3.099-2.463-7.839.636-10.587 3.1-2.749 7.84-2.463 10.587.636l28.355 31.98c2.748 3.099 2.463 7.839-.636 10.587-1.428 1.266-3.204 1.888-4.973 1.888z" fill="#e09273"/><path d="m289.902 1029.375c-2.204 0-4.386-.966-5.867-2.823l-27.304-34.219c-2.583-3.238-2.053-7.957 1.185-10.54s7.958-2.052 10.54 1.185l27.304 34.219c2.583 3.238 2.053 7.957-1.185 10.54-1.381 1.102-3.033 1.638-4.673 1.638z" fill="#e09273"/><path d="m332.315 1001.221c-2.422 0-4.8-1.172-6.246-3.338-.153-.229-15.439-23.071-28.177-36.503-2.851-3.006-2.725-7.753.281-10.603 3.005-2.85 7.752-2.724 10.603.281 13.628 14.371 29.119 37.521 29.771 38.5 2.298 3.446 1.369 8.102-2.077 10.401-1.279.854-2.726 1.262-4.156 1.262z" fill="#e09273"/><path d="m171.11 510.421c-59.921 14.858-155.023 57.504-168.891 174.51-3.34 28.178 2.832 67.962 5.516 91.106-4.265 30.023 1.061 89.782 12.553 115.511 11.229 25.141 17.68 36.644 17.68 36.644s5.668-150.218 209.918-156.89c0 0 7.891 5.364-4.155-25.582 5.167-7.595 7.118-19.715 6.2-26.083 9.15-12.83 10.976-30.426 11.123-37.021 2.189-97.892-89.944-172.196-89.944-172.196z" fill="#ea2688"/><path d="m249.924 727.138c-1.514 0-3.042-.457-4.365-1.406-3.366-2.414-4.137-7.1-1.723-10.466 21.915-30.552 3.942-93.724-17.458-127.581-2.213-3.501-1.168-8.134 2.333-10.347 3.503-2.213 8.134-1.168 10.347 2.333 12.464 19.72 22.605 46.093 27.127 70.547 3.999 21.625 5.482 51.982-10.161 73.791-1.465 2.042-3.766 3.129-6.101 3.129z" fill="#b7006d"/><path d="m250.748 829.402c7.521-7.228 16.361-22.96-2.863-72.58-12.691-32.757-134.331-24.354-197.147 60.19-32.351 43.542-33.592 81.503-33.842 92.344-.544 23.535 44.117 73.437 53.578 71.637-9.695-10.648-2.981-70.602 66.455-130.53 45.981-39.685 112.054-45.717 113.819-21.06z" fill="#ea2688"/><path d="m18.096 904.311c-.153 0-.307-.005-.462-.014-4.128-.251-7.274-3.789-7.032-7.918.136-2.318 3.913-57.336 54.18-106.731 30.5-29.97 68.142-51.019 105.993-59.268 33.34-7.266 63.219-3.523 77.974 9.769 3.078 2.772 3.325 7.515.553 10.592-2.771 3.078-7.515 3.325-10.592.553-9.062-8.163-32.594-13.264-64.741-6.258-35.123 7.655-70.166 27.298-98.673 55.312-45.958 45.161-49.688 96.416-49.721 96.928-.25 3.973-3.552 7.036-7.48 7.036z" fill="#b7006d"/><path d="m256.853 713.826c-.556 0-1.119-.062-1.684-.192-4.037-.926-6.56-4.949-5.633-8.987 2.598-11.326-7.948-24.355-19.114-38.149-4.012-4.957-8.161-10.083-11.931-15.4-2.396-3.379-1.599-8.06 1.78-10.456 3.379-2.395 8.061-1.599 10.456 1.781 3.493 4.927 7.489 9.864 11.354 14.638 12.933 15.977 26.305 32.498 22.075 50.94-.796 3.473-3.885 5.825-7.303 5.825z" fill="#b7006d"/><path d="m7.509 785.301c-.393 0-.791-.031-1.191-.095-4.09-.653-6.877-4.498-6.224-8.588 8.745-54.804 38.044-81.906 39.287-83.033 3.068-2.782 7.812-2.55 10.594.519 2.778 3.064 2.551 7.798-.505 10.582-.44.407-26.724 25.166-34.563 74.296-.589 3.69-3.776 6.319-7.397 6.319z" fill="#b7006d"/></svg>